<?xml version="1.0" standalone="no"?>
<!DOCTYPE svg PUBLIC "-//W3C//DTD SVG 20010904//EN"
 "http://www.w3.org/TR/2001/REC-SVG-20010904/DTD/svg10.dtd">
<svg version="1.0" xmlns="http://www.w3.org/2000/svg"
 width="1000.000000pt" height="1000.000000pt" viewBox="0 0 1000.000000 1000.000000"
 preserveAspectRatio="xMidYMid meet">
<metadata>
Created by potrace 1.11, written by Peter Selinger 2001-2013
</metadata>
<g transform="translate(0.000000,1000.000000) scale(0.100000,-0.100000)"
fill="#000000" stroke="none">
<path d="M6678 9706 c-81 -33 -202 -106 -283 -171 -158 -126 -367 -338 -497
-505 l-27 -35 25 80 c39 126 64 250 58 287 -3 18 -15 52 -27 76 -25 48 -27 49
-128 8 -320 -129 -687 -510 -738 -766 -5 -25 -19 -81 -30 -125 -12 -44 -27
-123 -33 -175 -14 -114 -28 -139 -28 -50 -1 186 -81 345 -205 405 -49 24 -57
26 -91 15 -23 -8 -65 -40 -110 -85 -58 -58 -81 -91 -117 -166 -56 -115 -69
-178 -68 -323 0 -109 8 -177 35 -305 14 -65 11 -91 -17 -168 -9 -23 -32 -104
-52 -180 -20 -76 -57 -207 -81 -292 -25 -85 -43 -159 -41 -165 2 -6 -31 -48
-74 -94 -135 -143 -235 -285 -255 -362 -10 -40 -16 -47 -55 -62 -26 -10 -57
-15 -76 -11 -27 4 -33 2 -33 -12 0 -13 -7 -16 -30 -13 -27 4 -30 2 -30 -23 0
-26 -2 -27 -37 -22 -33 6 -36 5 -30 -16 5 -20 -3 -17 -81 25 -115 62 -176 106
-237 170 -35 36 -63 56 -91 63 -150 40 -418 53 -574 27 -101 -16 -214 -66
-282 -124 -98 -82 -221 -250 -274 -372 -15 -36 -34 -72 -41 -81 -24 -29 -55
-132 -60 -199 -3 -36 0 -144 5 -240 8 -157 12 -183 39 -251 39 -99 93 -179
155 -229 61 -48 84 -52 73 -13 -15 53 -8 112 18 165 20 41 46 69 112 121 47
38 85 72 85 77 0 15 68 40 107 40 43 0 66 -12 91 -47 18 -26 19 -32 6 -93 -18
-86 -18 -300 0 -387 33 -155 92 -281 191 -408 81 -104 131 -147 307 -263 147
-96 253 -178 263 -202 22 -51 45 -214 45 -314 -1 -181 -9 -215 -97 -398 -44
-90 -95 -188 -114 -218 -48 -76 -62 -113 -59 -162 4 -81 2 -89 -31 -143 -18
-30 -73 -101 -122 -157 -49 -57 -113 -133 -142 -169 l-54 -66 -53 4 c-29 3
-64 9 -78 14 -62 24 -245 47 -390 50 -79 1 -86 0 -106 -24 -12 -14 -28 -48
-35 -76 -11 -43 -16 -50 -33 -46 -63 14 -391 55 -401 51 -7 -2 -23 -49 -35
-103 -128 -578 -234 -872 -514 -1430 -47 -95 -86 -176 -86 -180 0 -10 208 -82
368 -128 366 -104 1125 -222 1665 -259 108 -7 209 -11 222 -8 53 10 142 175
320 592 159 371 310 836 361 1105 7 39 15 79 18 90 4 11 3 26 -2 33 -5 7 -62
21 -128 32 -106 18 -648 90 -674 90 -5 0 -10 7 -10 16 0 17 -47 68 -69 75 -11
4 -4 20 26 65 22 32 59 94 83 136 24 43 46 75 49 72 3 -3 31 -42 61 -87 32
-48 78 -101 111 -127 31 -25 80 -73 109 -108 28 -34 55 -62 58 -62 23 1 34 24
39 81 6 61 25 101 38 79 10 -16 35 -12 35 6 0 23 29 43 62 44 15 0 30 4 33 10
3 5 26 18 50 29 24 10 48 28 54 40 7 11 17 20 24 18 25 -5 68 114 127 353 33
135 64 254 69 265 6 16 13 3 35 -61 37 -112 69 -159 199 -288 86 -85 123 -115
160 -128 54 -19 57 -14 32 45 -8 20 -15 41 -15 47 0 5 48 -23 106 -62 101 -70
106 -72 120 -54 8 11 14 27 14 35 0 13 10 15 51 12 l50 -3 -28 53 c-15 30 -29
56 -30 59 -4 6 120 2 175 -6 45 -7 56 7 30 35 -11 11 -10 13 4 8 49 -17 89
-18 119 -3 18 9 33 15 34 14 1 -2 13 -34 25 -73 76 -232 408 -901 470 -945 15
-11 68 -33 118 -50 100 -33 212 -40 267 -16 24 11 35 11 55 0 43 -21 175 -44
255 -44 74 0 76 1 119 40 24 23 54 62 66 87 l22 46 -22 41 c-22 41 -22 41 29
-14 27 -30 50 -58 51 -62 0 -4 19 -17 43 -29 47 -25 148 -36 222 -25 42 7 48
11 62 44 9 20 16 65 17 100 1 45 4 61 13 58 41 -16 187 -27 258 -19 71 7 80
10 83 29 2 16 8 20 21 17 11 -3 27 4 39 17 22 24 18 66 -12 113 -17 26 -17 28
14 82 17 30 33 55 34 55 1 0 31 -12 66 -26 77 -31 90 -23 63 37 -35 78 -139
195 -446 503 -308 307 -509 483 -679 594 -50 33 -87 64 -87 74 -1 9 -6 20 -11
23 -6 4 -25 30 -43 58 -37 57 -125 147 -200 205 -48 37 -48 37 -21 42 40 7 39
24 -3 55 -21 16 -110 101 -198 190 -166 167 -207 202 -383 320 l-105 70 -56
131 c-53 122 -115 222 -203 328 -18 22 -26 36 -18 33 31 -12 177 -56 210 -63
19 -3 51 -19 70 -34 62 -49 222 -142 345 -201 142 -68 354 -133 510 -155 77
-11 113 -20 120 -31 66 -105 192 -208 315 -256 107 -42 290 -87 314 -77 20 7
102 94 172 182 29 38 33 39 102 43 40 3 83 10 96 17 46 25 102 104 136 191 29
74 38 88 64 97 98 37 132 58 192 123 67 73 82 108 70 172 -6 32 -5 35 18 35
32 0 76 43 76 74 0 17 7 26 24 30 42 10 66 64 66 144 l0 70 37 7 c55 10 104
67 137 156 25 69 31 76 78 102 27 16 47 31 44 34 -3 3 2 11 11 18 11 8 18 37
24 101 4 49 11 99 14 111 5 14 0 28 -14 42 -15 15 -17 21 -7 21 24 0 55 49 54
85 -1 20 7 44 21 60 11 16 24 45 27 67 5 28 19 50 53 83 45 44 46 46 48 116 3
81 -7 108 -63 162 -43 41 -49 38 84 57 77 11 119 27 142 56 16 18 31 108 34
196 1 52 3 57 26 62 14 3 42 21 62 41 47 46 58 103 34 173 -15 44 -15 48 3 63
42 35 108 127 114 158 6 30 3 38 -36 76 l-42 43 33 38 c45 53 85 138 88 190 3
46 -4 56 -51 71 -23 8 6 11 131 17 177 8 211 15 329 74 44 21 110 53 146 70
74 35 84 45 94 84 6 24 3 29 -21 38 -83 32 -227 42 -514 36 -157 -3 -303 -8
-325 -11 -29 -4 -21 1 28 15 94 28 270 107 339 153 31 21 76 63 100 95 23 31
46 59 49 62 3 3 24 39 46 80 65 120 66 190 3 190 -45 0 -329 -89 -668 -209
-169 -60 -316 -112 -327 -116 -25 -9 62 42 185 107 52 28 105 60 118 72 34 30
126 174 174 270 49 99 45 116 -29 116 -268 0 -1057 -371 -1318 -619 -25 -24
-47 -42 -48 -40 -2 2 -1 27 1 56 4 52 4 52 60 84 215 120 562 412 604 507 36
81 8 165 -62 187 -40 13 -231 -62 -439 -171 -111 -59 -160 -88 -306 -183 -70
-45 -227 -167 -310 -241 -52 -46 -123 -94 -203 -138 -69 -37 -150 -91 -182
-119 -32 -29 -61 -53 -65 -53 -3 0 23 35 60 78 92 106 176 235 246 374 122
243 136 427 37 486 -25 15 -31 15 -81 -1 -69 -22 -205 -107 -310 -194 -65 -55
-78 -62 -62 -37 11 18 33 54 49 80 16 27 59 94 96 149 120 179 146 253 138
393 -5 85 -25 132 -56 132 -9 0 -42 -11 -74 -24z m-4770 -7432 c20 -33 33 -43
53 -44 15 0 41 -3 59 -7 24 -4 31 -3 26 5 -10 17 13 15 65 -4 27 -10 80 -17
136 -18 l93 -1 31 -38 c17 -20 37 -37 45 -37 7 0 20 -15 28 -32 7 -18 22 -42
32 -53 23 -24 118 -90 109 -75 -3 5 -2 10 4 10 5 0 13 -5 16 -10 4 -7 12 -7
25 0 23 12 70 13 70 1 0 -5 22 -18 49 -30 99 -42 222 -18 260 51 20 35 12 42
-28 22 -35 -17 -95 -12 -144 12 -21 11 -26 20 -22 37 4 15 -1 32 -14 49 l-20
25 72 -20 c40 -11 82 -19 94 -19 12 1 26 -5 31 -13 4 -9 40 -22 81 -31 41 -8
89 -21 108 -29 20 -8 46 -15 58 -15 12 0 57 -11 100 -25 43 -14 86 -23 96 -20
11 4 19 2 19 -5 0 -6 3 -9 8 -7 4 3 16 1 27 -3 24 -8 87 27 352 196 108 69
201 123 207 121 6 -2 -55 -46 -134 -97 -80 -52 -201 -133 -270 -179 -112 -76
-643 -424 -793 -519 -32 -20 -113 -72 -180 -115 -122 -80 -215 -133 -221 -126
-26 36 -63 102 -164 294 -66 127 -154 291 -196 365 -86 151 -326 626 -326 644
0 6 29 -40 65 -103 36 -62 77 -133 93 -157z m1485 99 c-7 -2 -19 -2 -25 0 -7
3 -2 5 12 5 14 0 19 -2 13 -5z m84 -9 c-3 -3 -12 -4 -19 -1 -8 3 -5 6 6 6 11
1 17 -2 13 -5z m-1735 -39 c17 -29 25 -71 10 -49 -4 5 -17 10 -28 10 -20 0
-21 -2 -9 -36 7 -19 23 -57 34 -84 16 -37 18 -46 6 -36 -24 20 -27 7 -10 -40
12 -34 13 -45 3 -51 -7 -4 -15 -3 -19 2 -3 6 -10 10 -15 10 -28 -2 -74 25 -74
43 0 35 42 181 58 199 8 9 11 17 5 17 -6 0 -8 11 -6 25 7 31 24 28 45 -10z
m1821 28 c-7 -2 -19 -2 -25 0 -7 3 -2 5 12 5 14 0 19 -2 13 -5z m432 -350
c-35 -148 -163 -558 -181 -582 -7 -8 -106 23 -121 38 -9 9 -19 15 -22 15 -3
-1 -22 6 -42 17 -20 10 -39 15 -43 12 -3 -4 -17 4 -30 16 -16 15 -25 19 -28
10 -3 -9 -8 -9 -18 3 -8 8 -24 12 -37 10 -30 -6 -29 5 2 34 27 25 31 39 13 50
-7 4 -8 3 -4 -4 5 -8 2 -10 -9 -6 -14 6 -14 8 0 24 21 23 19 33 -5 27 -11 -3
-20 -4 -20 -2 0 6 146 92 168 99 12 4 22 11 22 14 0 4 20 18 45 32 40 22 54
44 29 45 -23 2 -54 17 -49 25 3 5 12 7 21 3 9 -3 14 0 12 7 -3 11 103 93 110
85 2 -2 15 6 28 18 33 29 178 126 182 122 2 -2 -8 -52 -23 -112z"/>
<path d="M2430 1270 c0 -5 5 -10 11 -10 5 0 7 5 4 10 -3 6 -8 10 -11 10 -2 0
-4 -4 -4 -10z"/>
<path d="M3760 1920 c-8 -5 -12 -12 -9 -15 4 -3 12 1 19 10 14 17 11 19 -10 5z"/>
<path d="M3709 1908 c-8 -27 -7 -48 1 -43 6 4 18 1 26 -6 11 -9 18 -9 26 -1
11 11 8 13 -40 28 -7 2 -10 8 -7 14 3 5 4 10 1 10 -3 0 -6 -1 -7 -2z"/>
<path d="M3921 1849 c-7 -22 -11 -43 -8 -45 2 -2 9 14 16 37 7 22 11 43 8 45
-2 2 -9 -14 -16 -37z"/>
<path d="M3866 1675 c-3 -9 -6 -22 -5 -28 0 -7 5 -1 10 12 5 13 8 26 5 28 -2
2 -6 -3 -10 -12z"/>
</g>
</svg>
